HIERARCHY
ROOT Hips
{
	OFFSET -405.673950 -568.352600 88.993477
	CHANNELS 6 Xposition Yposition Zposition Zrotation Yrotation Xrotation
	JOINT Spine
	{
		OFFSET 0.000000 2.080078 8.814247
		CHANNELS 6 Xposition Yposition Zposition Zrotation Yrotation Xrotation
		JOINT Spine1
		{
			OFFSET 0.000000 0.000000 8.844139
			CHANNELS 6 Xposition Yposition Zposition Zrotation Yrotation Xrotation
			JOINT Spine2
			{
				OFFSET 0.000000 0.000000 11.682266
				CHANNELS 6 Xposition Yposition Zposition Zrotation Yrotation Xrotation
				JOINT Spine3
				{
					OFFSET 0.000000 0.000000 11.746696
					CHANNELS 6 Xposition Yposition Zposition Zrotation Yrotation Xrotation
					JOINT Neck
					{
						OFFSET 0.000000 0.000000 17.658264
						CHANNELS 6 Xposition Yposition Zposition Zrotation Yrotation Xrotation
						JOINT Neck1
						{
							OFFSET 0.000000 0.000000 5.101517
							CHANNELS 6 Xposition Yposition Zposition Zrotation Yrotation Xrotation
							JOINT Head
							{
								OFFSET 0.000000 0.000000 5.101517
								CHANNELS 6 Xposition Yposition Zposition Zrotation Yrotation Xrotation
								JOINT HeadEnd
								{
									OFFSET 0.000000 0.000000 11.655090
									CHANNELS 6 Xposition Yposition Zposition Zrotation Yrotation Xrotation
									End Site
									{
										OFFSET 0.000000 0.000000 0.100006
									}
								}
							}
						}
					}
					JOINT RightShoulder
					{
						OFFSET -2.625397 0.000000 11.175217
						CHANNELS 6 Xposition Yposition Zposition Zrotation Yrotation Xrotation
						JOINT RightArm
						{
							OFFSET 0.000000 0.000000 10.434708
							CHANNELS 6 Xposition Yposition Zposition Zrotation Yrotation Xrotation
							JOINT RightForeArm
							{
								OFFSET 0.000000 0.000000 29.628418
								CHANNELS 6 Xposition Yposition Zposition Zrotation Yrotation Xrotation
								JOINT RightHand
								{
									OFFSET 0.000000 0.000000 22.857605
									CHANNELS 6 Xposition Yposition Zposition Zrotation Yrotation Xrotation
									JOINT RightHandThumb1
									{
										OFFSET -2.867310 -2.944275 3.959564
										CHANNELS 6 Xposition Yposition Zposition Zrotation Yrotation Xrotation
										JOINT RightHandThumb2
										{
											OFFSET 0.000000 0.000000 3.350403
											CHANNELS 6 Xposition Yposition Zposition Zrotation Yrotation Xrotation
											JOINT RightHandThumb3
											{
												OFFSET 0.000000 0.000000 3.756516
												CHANNELS 6 Xposition Yposition Zposition Zrotation Yrotation Xrotation
												JOINT RightHandThumb4
												{
													OFFSET 0.000000 0.000000 3.147339
													CHANNELS 6 Xposition Yposition Zposition Zrotation Yrotation Xrotation
													End Site
													{
														OFFSET 0.000000 0.000000 0.100006
													}
												}
											}
										}
									}
									JOINT RightHandIndex1
									{
										OFFSET -0.086761 -2.345276 10.030899
										CHANNELS 6 Xposition Yposition Zposition Zrotation Yrotation Xrotation
										JOINT RightHandIndex2
										{
											OFFSET 0.000000 0.000000 4.061096
											CHANNELS 6 Xposition Yposition Zposition Zrotation Yrotation Xrotation
											JOINT RightHandIndex3
											{
												OFFSET 0.000000 0.000000 3.248871
												CHANNELS 6 Xposition Yposition Zposition Zrotation Yrotation Xrotation
												JOINT RightHandIndex4
												{
													OFFSET 0.000000 0.000000 2.639709
													CHANNELS 6 Xposition Yposition Zposition Zrotation Yrotation Xrotation
													End Site
													{
														OFFSET 0.000000 0.000000 0.100006
													}
												}
											}
										}
									}
									JOINT RightHandMiddle1
									{
										OFFSET 0.104095 -0.006775 9.502945
										CHANNELS 6 Xposition Yposition Zposition Zrotation Yrotation Xrotation
										JOINT RightHandMiddle2
										{
											OFFSET 0.000000 0.000000 4.568726
											CHANNELS 6 Xposition Yposition Zposition Zrotation Yrotation Xrotation
											JOINT RightHandMiddle3
											{
												OFFSET 0.000000 0.000000 3.654984
												CHANNELS 6 Xposition Yposition Zposition Zrotation Yrotation Xrotation
												JOINT RightHandMiddle4
												{
													OFFSET 0.000000 0.000000 2.741241
													CHANNELS 6 Xposition Yposition Zposition Zrotation Yrotation Xrotation
													End Site
													{
														OFFSET 0.000000 0.000000 0.100006
													}
												}
											}
										}
									}
									JOINT RightHandRing1
									{
										OFFSET 0.086761 2.267456 8.921707
										CHANNELS 6 Xposition Yposition Zposition Zrotation Yrotation Xrotation
										JOINT RightHandRing2
										{
											OFFSET 0.000000 0.000000 4.061096
											CHANNELS 6 Xposition Yposition Zposition Zrotation Yrotation Xrotation
											JOINT RightHandRing3
											{
												OFFSET 0.000000 0.000000 3.654984
												CHANNELS 6 Xposition Yposition Zposition Zrotation Yrotation Xrotation
												JOINT RightHandRing4
												{
													OFFSET 0.000000 0.000000 2.741241
													CHANNELS 6 Xposition Yposition Zposition Zrotation Yrotation Xrotation
													End Site
													{
														OFFSET 0.000000 0.000000 0.100006
													}
												}
											}
										}
									}
									JOINT RightHandPinky1
									{
										OFFSET -0.173492 4.467224 7.976990
										CHANNELS 6 Xposition Yposition Zposition Zrotation Yrotation Xrotation
										JOINT RightHandPinky2
										{
											OFFSET 0.000000 0.000000 3.350403
											CHANNELS 6 Xposition Yposition Zposition Zrotation Yrotation Xrotation
											JOINT RightHandPinky3
											{
												OFFSET 0.000000 0.000000 2.842758
												CHANNELS 6 Xposition Yposition Zposition Zrotation Yrotation Xrotation
												JOINT RightHandPinky4
												{
													OFFSET 0.000000 0.000000 2.639709
													CHANNELS 6 Xposition Yposition Zposition Zrotation Yrotation Xrotation
													End Site
													{
														OFFSET 0.000000 0.000000 0.100006
													}
												}
											}
										}
									}
									JOINT RightForeArmEnd
									{
										OFFSET 0.000000 0.000000 0.000000
										CHANNELS 6 Xposition Yposition Zposition Zrotation Yrotation Xrotation
										End Site
										{
											OFFSET 0.000000 0.000000 0.100006
										}
									}
								}
								JOINT RightArmEnd
								{
									OFFSET 0.000000 0.000000 0.000000
									CHANNELS 6 Xposition Yposition Zposition Zrotation Yrotation Xrotation
									End Site
									{
										OFFSET 0.000000 0.000000 0.100006
									}
								}
							}
						}
					}
					JOINT LeftShoulder
					{
						OFFSET 2.625397 0.000000 11.175217
						CHANNELS 6 Xposition Yposition Zposition Zrotation Yrotation Xrotation
						JOINT LeftArm
						{
							OFFSET 0.000000 0.000000 10.813629
							CHANNELS 6 Xposition Yposition Zposition Zrotation Yrotation Xrotation
							JOINT LeftForeArm
							{
								OFFSET 0.000000 0.000000 28.724777
								CHANNELS 6 Xposition Yposition Zposition Zrotation Yrotation Xrotation
								JOINT LeftHand
								{
									OFFSET 0.644379 0.328857 25.716171
									CHANNELS 6 Xposition Yposition Zposition Zrotation Yrotation Xrotation
									JOINT LeftHandThumb1
									{
										OFFSET 2.867310 -2.944275 3.959564
										CHANNELS 6 Xposition Yposition Zposition Zrotation Yrotation Xrotation
										JOINT LeftHandThumb2
										{
											OFFSET 0.000000 0.000000 3.350403
											CHANNELS 6 Xposition Yposition Zposition Zrotation Yrotation Xrotation
											JOINT LeftHandThumb3
											{
												OFFSET 0.000000 0.000000 3.756516
												CHANNELS 6 Xposition Yposition Zposition Zrotation Yrotation Xrotation
												JOINT LeftHandThumb4
												{
													OFFSET 0.000000 0.000000 3.100006
													CHANNELS 6 Xposition Yposition Zposition Zrotation Yrotation Xrotation
													End Site
													{
														OFFSET 0.000000 0.000000 0.100006
													}
												}
											}
										}
									}
									JOINT LeftHandIndex1
									{
										OFFSET 0.086761 -2.345276 10.030899
										CHANNELS 6 Xposition Yposition Zposition Zrotation Yrotation Xrotation
										JOINT LeftHandIndex2
										{
											OFFSET 0.000000 0.000000 4.061096
											CHANNELS 6 Xposition Yposition Zposition Zrotation Yrotation Xrotation
											JOINT LeftHandIndex3
											{
												OFFSET 0.000000 0.000000 3.248871
												CHANNELS 6 Xposition Yposition Zposition Zrotation Yrotation Xrotation
												JOINT LeftHandIndex4
												{
													OFFSET 0.000000 0.000000 2.639709
													CHANNELS 6 Xposition Yposition Zposition Zrotation Yrotation Xrotation
													End Site
													{
														OFFSET 0.000000 0.000000 0.100006
													}
												}
											}
										}
									}
									JOINT LeftHandMiddle1
									{
										OFFSET -0.104095 -0.006775 9.502945
										CHANNELS 6 Xposition Yposition Zposition Zrotation Yrotation Xrotation
										JOINT LeftHandMiddle2
										{
											OFFSET 0.000000 0.000000 4.568726
											CHANNELS 6 Xposition Yposition Zposition Zrotation Yrotation Xrotation
											JOINT LeftHandMiddle3
											{
												OFFSET 0.000000 0.000000 3.654984
												CHANNELS 6 Xposition Yposition Zposition Zrotation Yrotation Xrotation
												JOINT LeftHandMiddle4
												{
													OFFSET 0.000000 0.000000 2.741241
													CHANNELS 6 Xposition Yposition Zposition Zrotation Yrotation Xrotation
													End Site
													{
														OFFSET 0.000000 0.000000 0.100006
													}
												}
											}
										}
									}
									JOINT LeftHandRing1
									{
										OFFSET -0.086761 2.267456 8.921707
										CHANNELS 6 Xposition Yposition Zposition Zrotation Yrotation Xrotation
										JOINT LeftHandRing2
										{
											OFFSET 0.000000 0.000000 4.061096
											CHANNELS 6 Xposition Yposition Zposition Zrotation Yrotation Xrotation
											JOINT LeftHandRing3
											{
												OFFSET 0.000000 0.000000 3.654984
												CHANNELS 6 Xposition Yposition Zposition Zrotation Yrotation Xrotation
												JOINT LeftHandRing4
												{
													OFFSET 0.000000 0.000000 2.741241
													CHANNELS 6 Xposition Yposition Zposition Zrotation Yrotation Xrotation
													End Site
													{
														OFFSET 0.000000 0.000000 0.100006
													}
												}
											}
										}
									}
									JOINT LeftHandPinky1
									{
										OFFSET 0.173492 4.467224 7.976990
										CHANNELS 6 Xposition Yposition Zposition Zrotation Yrotation Xrotation
										JOINT LeftHandPinky2
										{
											OFFSET 0.000000 0.000000 3.350403
											CHANNELS 6 Xposition Yposition Zposition Zrotation Yrotation Xrotation
											JOINT LeftHandPinky3
											{
												OFFSET 0.000000 0.000000 2.842758
												CHANNELS 6 Xposition Yposition Zposition Zrotation Yrotation Xrotation
												JOINT LeftHandPinky4
												{
													OFFSET 0.000000 0.000000 2.639709
													CHANNELS 6 Xposition Yposition Zposition Zrotation Yrotation Xrotation
													End Site
													{
														OFFSET 0.000000 0.000000 0.100006
													}
												}
											}
										}
									}
									JOINT LeftForeArmEnd
									{
										OFFSET 0.000000 0.000000 0.000000
										CHANNELS 6 Xposition Yposition Zposition Zrotation Yrotation Xrotation
										End Site
										{
											OFFSET 0.000000 0.000000 0.100006
										}
									}
								}
								JOINT LeftArmEnd
								{
									OFFSET 0.000000 0.000000 0.000000
									CHANNELS 6 Xposition Yposition Zposition Zrotation Yrotation Xrotation
									End Site
									{
										OFFSET 0.000000 0.000000 0.100006
									}
								}
							}
						}
					}
				}
			}
		}
	}
	JOINT RightUpLeg
	{
		OFFSET -11.289948 0.000000 0.000000
		CHANNELS 6 Xposition Yposition Zposition Zrotation Yrotation Xrotation
		JOINT RightLeg
		{
			OFFSET 0.000000 0.000000 -38.200329
			CHANNELS 6 Xposition Yposition Zposition Zrotation Yrotation Xrotation
			JOINT RightFoot
			{
				OFFSET 0.000000 0.000000 -39.900856
				CHANNELS 6 Xposition Yposition Zposition Zrotation Yrotation Xrotation
				JOINT RightToeBase
				{
					OFFSET 0.000000 -15.261658 0.000001
					CHANNELS 6 Xposition Yposition Zposition Zrotation Yrotation Xrotation
					JOINT RightToeBaseEnd
					{
						OFFSET 0.000000 -7.370728 0.000001
						CHANNELS 6 Xposition Yposition Zposition Zrotation Yrotation Xrotation
						End Site
						{
							OFFSET 0.000000 0.000000 0.100000
						}
					}
				}
				JOINT RightLegEnd
				{
					OFFSET 0.000000 0.000000 0.000000
					CHANNELS 6 Xposition Yposition Zposition Zrotation Yrotation Xrotation
					End Site
					{
						OFFSET 0.000000 0.000000 0.100000
					}
				}
			}
			JOINT RightUpLegEnd
			{
				OFFSET 0.000000 0.000000 0.000000
				CHANNELS 6 Xposition Yposition Zposition Zrotation Yrotation Xrotation
				End Site
				{
					OFFSET 0.000000 0.000000 0.099998
				}
			}
		}
	}
	JOINT LeftUpLeg
	{
		OFFSET 11.315674 0.000000 0.000000
		CHANNELS 6 Xposition Yposition Zposition Zrotation Yrotation Xrotation
		JOINT LeftLeg
		{
			OFFSET 0.000000 0.000000 -38.200329
			CHANNELS 6 Xposition Yposition Zposition Zrotation Yrotation Xrotation
			JOINT LeftFoot
			{
				OFFSET 0.000000 0.000000 -39.900856
				CHANNELS 6 Xposition Yposition Zposition Zrotation Yrotation Xrotation
				JOINT LeftToeBase
				{
					OFFSET 0.000000 -15.261658 0.000001
					CHANNELS 6 Xposition Yposition Zposition Zrotation Yrotation Xrotation
					JOINT LeftToeBaseEnd
					{
						OFFSET 0.000000 -7.539978 0.000001
						CHANNELS 6 Xposition Yposition Zposition Zrotation Yrotation Xrotation
						End Site
						{
							OFFSET 0.000000 0.000000 0.100000
						}
					}
				}
				JOINT LeftLegEnd
				{
					OFFSET 0.000000 0.000000 0.000000
					CHANNELS 6 Xposition Yposition Zposition Zrotation Yrotation Xrotation
					End Site
					{
						OFFSET 0.000000 0.000000 0.100000
					}
				}
			}
			JOINT LeftUpLegEnd
			{
				OFFSET 0.000000 0.000000 0.000000
				CHANNELS 6 Xposition Yposition Zposition Zrotation Yrotation Xrotation
				End Site
				{
					OFFSET 0.000000 0.000000 0.099998
				}
			}
		}
	}
}
MOTION
Frames: 2
Frame Time: 0.016667
3.366180 -20.595520 86.793610 3.784709 4.310687 -22.095802 0.000008 2.080072 8.814240 -1.710273 -5.368259 10.788671 0.000000 0.000016 8.844137 0.057762 -0.609614 3.783271 0.000007 0.000027 11.682283 0.654904 2.525542 14.671142 0.000012 -0.000027 11.746689 0.240718 2.990726 7.042603 0.000013 0.000011 17.658283 -7.006865 -7.069393 8.860650 -0.000011 0.000038 5.101537 -4.599917 0.270110 -4.208263 -0.000008 0.000009 5.101560 -0.903103 -1.939480 -23.045314 -0.000006 0.000063 11.655092 -0.000000 0.000000 -0.000000 -2.625399 0.000069 11.175187 14.565448 -92.065342 0.491023 0.000008 -0.000015 10.434700 -52.652648 -41.958378 51.108417 0.000002 0.000061 29.628450 13.385373 -0.330608 26.735800 -0.000027 -0.000013 22.857620 19.041082 -8.012772 -9.442116 -2.867302 -2.944305 3.959534 33.328752 -11.341757 61.610560 -0.000013 0.000027 3.350417 -0.000001 0.000003 0.034271 0.000002 0.000015 3.756523 0.000002 -0.000005 -0.016285 -0.000001 0.000002 3.147334 0.000000 0.000000 -0.000001 -0.086746 -2.345260 10.030888 -13.195020 -21.365013 5.405853 -0.000013 0.000028 4.061079 0.198537 -15.436272 2.224041 0.000010 -0.000030 3.248871 -0.301511 -15.436412 2.224196 -0.000003 0.000015 2.639719 -0.000002 0.000002 -0.000003 0.104103 -0.006778 9.502928 -8.097128 -22.944885 1.935924 -0.000007 0.000018 4.568748 0.357169 -16.352627 0.885654 0.000008 -0.000010 3.654998 -0.139024 -16.352617 0.884592 0.000011 -0.000009 2.741230 -0.000000 0.000001 0.000001 0.086771 2.267457 8.921695 -1.038103 -32.307611 1.173305 -0.000001 0.000021 4.061119 -0.702438 -22.817155 -1.474501 -0.000005 -0.000010 3.654966 0.299847 -22.817172 -1.475382 0.000011 -0.000001 2.741240 0.000000 0.000002 -0.000002 -0.173523 4.467208 7.976988 8.531032 -40.830335 -3.081119 -0.000004 0.000002 3.350441 -0.504125 -28.131693 -5.965363 0.000026 -0.000089 2.842800 1.495884 -28.131582 -5.965365 -0.000000 -0.000004 2.639725 0.000000 0.000000 -0.000000 -0.000000 0.000027 0.000007 -0.000004 -0.000000 -0.000001 0.000015 0.000012 0.000006 -0.000002 -0.000002 -0.000002 2.625416 0.000073 11.175229 -10.128733 91.454860 -0.869779 0.000021 0.000015 10.813644 24.662580 56.627408 28.063150 -0.000017 0.000031 28.724834 -13.231486 0.704854 41.053388 0.644386 0.328892 25.716141 -24.183528 14.208625 -13.701967 2.867233 -2.944275 3.959641 -33.321781 11.307487 61.556943 -0.000020 -0.000002 3.350399 0.011030 -0.011006 -0.022246 -0.000029 -0.000026 3.756516 0.011024 -0.010952 -0.022277 -0.000017 -0.000008 3.099998 0.000001 0.000001 0.000001 0.086708 -2.345368 10.030979 -2.785676 39.604907 2.727530 -0.000025 -0.000046 4.061153 -0.509658 27.288199 -4.157690 -0.000022 0.000025 3.248871 -1.009656 27.288045 -4.157690 0.000008 0.000008 2.639711 -0.000001 0.000001 0.000000 -0.104154 -0.006817 9.503025 3.313150 37.597408 5.306943 -0.000066 -0.000071 4.568777 0.148366 26.467430 -1.495151 -0.000049 -0.000066 3.655040 -0.351636 26.467313 -1.495148 -0.000033 -0.000062 2.741255 0.000000 -0.000000 -0.000000 -0.086800 2.267403 8.921745 13.745433 37.868269 11.091897 -0.000066 -0.000074 4.061127 -0.554918 27.460284 1.821471 -0.000041 -0.000091 3.655006 0.445079 27.460304 1.821484 -0.000092 -0.000035 2.741249 -0.000004 -0.000000 0.000001 0.173508 4.467174 7.977020 23.727592 35.205626 16.083046 -0.000038 0.000011 3.350430 -0.700788 26.395584 5.536093 -0.000021 -0.000083 2.842789 1.299185 26.395635 5.536053 0.000041 -0.000063 2.639708 0.000000 0.000000 0.000000 0.000000 0.000006 0.000012 0.000000 0.000000 0.000000 0.000008 -0.000001 0.000000 0.000001 0.000000 -0.000001 -11.290006 -0.000061 -0.000015 -12.291696 3.630478 21.802351 -0.000003 -0.000033 -38.200336 -1.142368 0.258872 12.766465 -0.000020 -0.000085 -39.900875 -10.113245 -0.537792 12.680763 -0.000000 -15.261723 0.000036 1.786879 0.755221 -16.089965 0.000005 -7.370725 0.000000 -0.000000 0.000000 0.000001 0.000008 -0.000062 -0.000002 0.000000 0.000000 0.000001 -0.000007 -0.000053 -0.000002 -0.000001 -0.000000 -0.000000 11.315641 -0.000023 -0.000023 -12.545629 -10.598666 13.076726 -0.000014 -0.000056 -38.200348 1.379329 -0.651829 25.289556 0.000016 -0.000087 -39.900864 2.168182 6.730758 10.894834 -0.000039 -15.261654 0.000018 -1.527533 -1.062540 -20.235967 -0.000031 -7.539917 0.000001 -0.000000 -0.000000 -0.000001 0.000032 0.000002 0.000000 -0.000000 -0.000000 0.000003 -0.000001 -0.000063 0.000003 0.000000 0.000001 -0.000001 
4.001373 -20.653503 86.840652 3.468999 3.976821 -22.375826 -0.000010 2.080057 8.814243 -1.678926 -5.211378 10.868362 0.000001 -0.000010 8.844157 0.112741 -0.623095 3.765212 -0.000009 -0.000023 11.682270 0.832976 2.673432 14.861156 0.000001 -0.000012 11.746696 0.326831 3.089146 7.140071 -0.000006 0.000006 17.658276 -6.718351 -6.557510 9.436612 -0.000007 -0.000004 5.101533 -4.486473 0.250288 -3.953754 0.000004 0.000011 5.101542 -0.952057 -2.058161 -23.530359 -0.000004 0.000010 11.655087 -0.000001 0.000000 0.000000 -2.625423 -0.000002 11.175223 14.559882 -92.084405 0.473676 0.000038 0.000006 10.434731 -52.536596 -42.189986 50.855563 0.000010 -0.000023 29.628441 14.089466 -0.427973 26.861978 -0.000023 0.000055 22.857609 18.635300 -7.739715 -9.280052 -2.867294 -2.944305 3.959602 33.325927 -11.351014 61.625716 -0.000009 0.000010 3.350425 -0.000002 0.000003 -0.000000 0.000001 -0.000029 3.756509 0.000002 -0.000005 0.000003 -0.000006 0.000003 3.147335 -0.000001 -0.000000 0.000002 -0.086746 -2.345293 10.030903 -13.143509 -21.147514 5.670526 -0.000014 0.000026 4.061094 0.202354 -15.312282 2.205582 -0.000007 -0.000013 3.248884 -0.297599 -15.312186 2.205575 0.000004 0.000016 2.639715 -0.000001 -0.000001 -0.000001 0.104111 -0.006787 9.502956 -8.057579 -22.763448 2.207704 -0.000003 0.000012 4.568707 0.357217 -16.235616 0.881208 0.000007 -0.000016 3.655002 -0.138592 -16.235592 0.879882 -0.000002 -0.000004 2.741254 0.000001 0.000004 -0.000001 0.086747 2.267469 8.921710 -0.987983 -32.050434 1.317070 -0.000003 -0.000022 4.061132 -0.705555 -22.626480 -1.461619 -0.000007 0.000021 3.654982 0.298013 -22.626380 -1.462998 0.000031 0.000015 2.741221 -0.000001 0.000000 0.000002 -0.173508 4.467254 7.977016 8.549125 -40.377882 -3.153074 -0.000008 0.000027 3.350414 -0.538498 -27.839305 -5.892118 0.000000 0.000031 2.842773 1.461505 -27.839301 -5.892116 -0.000000 0.000008 2.639711 -0.000000 0.000000 0.000001 -0.000006 0.000018 0.000028 -0.000003 -0.000001 -0.000000 -0.000006 0.000015 0.000004 -0.000002 -0.000001 -0.000001 2.625409 -0.000007 11.175206 -9.971379 91.535313 -0.782449 0.000014 0.000002 10.813629 23.841291 55.715786 28.058311 0.000031 0.000076 28.724855 -13.755453 0.601161 44.054775 0.644379 0.328957 25.716125 -22.781667 16.229899 -13.900618 2.867302 -2.944290 3.959587 -33.321614 11.308038 61.556779 -0.000018 -0.000023 3.350410 0.011033 -0.011003 -0.022248 -0.000068 0.000013 3.756514 0.011026 -0.010948 -0.022279 -0.000062 -0.000009 3.100011 0.000001 0.000002 -0.000001 0.086727 -2.345348 10.030975 -2.673043 40.451683 2.952047 -0.000053 -0.000053 4.061115 -0.556666 27.854524 -4.259276 -0.000007 -0.000001 3.248909 -1.056691 27.854543 -4.259306 -0.000039 -0.000003 2.639743 0.000001 0.000000 -0.000000 -0.104139 -0.006846 9.502995 3.523735 38.544349 5.535625 0.000004 -0.000077 4.568774 0.128604 27.133691 -1.538995 -0.000047 -0.000062 3.655016 -0.371400 27.133686 -1.538998 -0.000020 -0.000035 2.741234 -0.000004 -0.000000 0.000001 -0.086807 2.267394 8.921738 14.229828 39.141499 11.570451 -0.000013 -0.000067 4.061159 -0.520606 28.394821 1.894743 -0.000045 -0.000068 3.655001 0.479391 28.394835 1.894735 -0.000073 -0.000062 2.741261 0.000001 0.000000 -0.000000 0.173523 4.467153 7.977020 24.473947 36.640669 17.005441 -0.000092 0.000014 3.350441 -0.576896 27.507482 5.809440 -0.000001 -0.000085 2.842770 1.423117 27.507489 5.809449 -0.000058 -0.000061 2.639720 0.000000 -0.000001 -0.000000 -0.000002 0.000010 0.000011 0.000000 -0.000001 -0.000002 -0.000013 0.000015 0.000005 -0.000002 -0.000001 0.000000 -11.289967 -0.000076 -0.000021 -11.797243 4.367129 21.926085 -0.000015 -0.000041 -38.200329 -1.195083 0.271442 12.794669 -0.000012 -0.000029 -39.900871 -9.857957 -1.105098 12.891832 -0.000012 -15.261746 0.000037 1.821954 0.836119 -16.112348 -0.000004 -7.370733 -0.000000 0.000001 -0.000000 -0.000000 0.000012 -0.000080 0.000000 0.000003 0.000001 0.000000 -0.000001 -0.000055 -0.000004 -0.000001 -0.000000 0.000000 11.315653 -0.000061 -0.000023 -12.502698 -9.654101 13.508359 -0.000029 -0.000060 -38.200363 1.325511 -0.621600 25.119831 -0.000003 -0.000088 -39.900856 2.896396 6.502918 10.841767 -0.000028 -15.261633 0.000004 -1.532105 -1.016325 -20.123704 -0.000031 -7.539917 0.000001 -0.000000 0.000000 0.000000 0.000003 -0.000059 0.000002 -0.000000 -0.000000 -0.000000 0.000000 -0.000061 0.000006 -0.000000 -0.000000 -0.000000 
